<svg width="22" height="20" viewBox="0 0 22 20" fill="none" xmlns="http://www.w3.org/2000/svg">
<path d="M20.223 1.79563C19.071 0.643628 17.5459 0.013992 15.9182 0.013992C14.2904 0.013992 12.7606 0.648292 11.6086 1.80029L11.007 2.40194L10.396 1.79096C9.24401 0.638964 7.70957 0 6.08184 0C4.45878 0 2.929 0.6343 1.78166 1.78164C0.629662 2.93364 -0.00463843 4.46342 2.55386e-05 6.09115C2.55386e-05 7.71887 0.638989 9.24399 1.79099 10.396L10.5499 19.1549C10.6712 19.2762 10.8344 19.3415 10.993 19.3415C11.1516 19.3415 11.3148 19.2809 11.4361 19.1596L20.2137 10.4146C21.3657 9.26264 22 7.73286 22 6.10514C22.0046 4.47741 21.375 2.94763 20.223 1.79563ZM19.3275 9.52383L10.993 17.8257L2.67714 9.50984C1.76301 8.5957 1.2593 7.38307 1.2593 6.09115C1.2593 4.79923 1.75834 3.58659 2.67248 2.67712C3.58195 1.76765 4.79459 1.26394 6.08184 1.26394C7.37376 1.26394 8.59106 1.76764 9.5052 2.68178L10.5593 3.73584C10.8064 3.98303 11.2029 3.98303 11.4501 3.73584L12.4948 2.69111C13.4089 1.77697 14.6262 1.27326 15.9135 1.27326C17.2007 1.27326 18.4134 1.77697 19.3275 2.68645C20.2417 3.60059 20.7407 4.81322 20.7407 6.10514C20.7454 7.39706 20.2417 8.60969 19.3275 9.52383Z" fill="#DDDDDD"/>
</svg>
