<svg width="22" height="26" viewBox="0 0 22 26" fill="none" xmlns="http://www.w3.org/2000/svg">
<path fill-rule="evenodd" clip-rule="evenodd" d="M16.0958 24.0441C15.8417 24.7966 15.3069 25.3749 14.6479 25.7012C14.0152 26.0146 13.2675 26.0957 12.5433 25.8763L1.95606 22.303C1.20347 22.0489 0.625245 21.5141 0.298739 20.8552C-0.0271722 20.1968 -0.101955 19.4143 0.151751 18.6632L4.33523 6.27307C4.54094 5.6639 4.93429 5.15113 5.47027 4.79646L10.5012 0.60603C10.8257 0.321974 11.3676 0.108931 11.7907 0.0387108C12.2549 -0.0386509 12.7316 0.000625019 13.1763 0.150389L16.9585 1.41932C17.4627 1.58971 17.8886 1.88587 18.2127 2.26078C18.5432 2.64322 18.7682 3.10799 18.863 3.60469L20.3237 9.98842C20.3987 10.2645 20.4298 10.545 20.4213 10.8223C20.4124 11.1108 20.3612 11.3905 20.2721 11.6533L19.606 13.6278C20.0397 13.7742 20.504 13.9047 21.0037 14.016C21.2776 14.0765 21.4506 14.3475 21.3899 14.6214C21.3296 14.8953 21.0585 15.0685 20.7845 15.008C20.2485 14.8886 19.7489 14.7485 19.2813 14.5914L16.0958 24.0441ZM7.73836 17.7561C7.73836 17.5236 7.61339 17.3483 7.3934 17.2739L4.74942 16.3841C4.48321 16.295 4.19519 16.4386 4.10593 16.7048C4.01686 16.9708 4.16048 17.259 4.42668 17.3481L7.05579 18.233C7.11034 18.253 7.16925 18.2639 7.23055 18.2639C7.51103 18.2639 7.73836 18.0081 7.73836 17.7561ZM11.174 18.5464C10.8588 18.4542 10.5228 18.7105 10.5228 19.0352C10.5228 19.2623 10.6372 19.4285 10.8489 19.5097C10.8602 19.5134 10.8711 19.5176 10.8826 19.5212L13.4921 20.3993C13.7583 20.4884 14.0465 20.345 14.1356 20.0788C14.2246 19.8126 14.081 19.5243 13.8148 19.4353L11.174 18.5464ZM9.11877 17.8936C8.83848 17.8936 8.61096 18.1209 8.61096 18.4014C8.61096 18.6819 8.83848 18.9092 9.11877 18.9092C9.39925 18.9092 9.62658 18.6819 9.62658 18.4014C9.62658 18.1209 9.39925 17.8936 9.11877 17.8936ZM12.6836 6.33476C12.6891 6.05428 12.921 5.83132 13.2015 5.83687C13.482 5.84223 13.7049 6.07411 13.6994 6.3546C13.6994 6.36035 13.6781 6.99055 13.9043 7.89668C13.9198 7.88954 13.9348 7.8824 13.9499 7.87486C14.3415 7.68106 14.6589 7.33809 14.8094 6.89236C14.9606 6.44506 14.9159 5.9785 14.7217 5.58614C14.5277 5.19457 14.185 4.87719 13.7392 4.72663C13.2917 4.57548 12.8254 4.62011 12.433 4.81451C12.0415 5.00831 11.7241 5.35108 11.5735 5.797C11.4224 6.24451 11.467 6.71086 11.6612 7.10322C11.8552 7.49479 12.198 7.81218 12.6437 7.96273C12.7272 7.9909 12.8113 8.01213 12.8954 8.027C12.6607 7.03023 12.6834 6.34091 12.6836 6.33476ZM14.2179 8.86925C14.8013 10.3342 16.0383 12.1129 18.6569 13.2614L19.3081 11.3266C19.3664 11.1544 19.3999 10.9753 19.4055 10.7944C19.4107 10.6184 19.3898 10.4357 19.3398 10.2514L17.8712 3.83182C17.8095 3.49162 17.6706 3.18852 17.4439 2.92629C17.2346 2.68408 16.9603 2.49306 16.6357 2.38337L12.8538 1.11444C12.5657 1.01744 12.2563 0.992244 11.954 1.04243C11.879 1.05493 11.3087 1.26896 11.1341 1.40028L6.04632 5.63434C5.697 5.86087 5.43238 6.20146 5.29928 6.59581L1.1156 18.986C0.951552 19.472 1.00015 19.9788 1.21101 20.4049C1.42167 20.8304 1.7942 21.1753 2.2786 21.339L12.7788 24.8843C13.2648 25.0484 13.7716 25 14.1979 24.7889C14.623 24.5782 14.9679 24.2061 15.1316 23.7219L18.3302 14.2302C15.2484 12.9119 13.8472 10.7848 13.2106 9.07039C12.1748 9.07754 11.2139 8.49216 10.7489 7.55331C10.0812 6.20484 10.6347 4.56973 11.9827 3.90223C13.3312 3.23454 14.9663 3.78798 15.6338 5.13605C15.9431 5.7605 16.0139 6.50278 15.7735 7.2151C15.5324 7.92921 15.0252 8.47768 14.4 8.78713C14.3405 8.81669 14.2798 8.84406 14.2179 8.86925ZM6.28475 11.8449L15.3504 14.8961C15.6166 14.9852 15.9046 14.8416 15.9936 14.5754C16.0827 14.3092 15.9393 14.0211 15.6729 13.9321L6.60749 10.8809C6.34128 10.7918 6.05326 10.9352 5.96419 11.2014C5.87513 11.4676 6.01855 11.7558 6.28475 11.8449ZM5.35562 14.5964L14.4212 17.6476C14.6874 17.7369 14.9754 17.5933 15.0645 17.3271C15.1536 17.0609 15.01 16.7728 14.7438 16.6838L5.67835 13.6326C5.41215 13.5433 5.12413 13.6869 5.03506 13.9531C4.94599 14.2193 5.08941 14.5073 5.35562 14.5964Z" fill="black"/>
</svg>
