<svg width="17" height="25" viewBox="0 0 17 25" fill="none" xmlns="http://www.w3.org/2000/svg">
<path d="M14.7536 4.02576H14.3664V0.378788C14.3664 0.278327 14.3265 0.181981 14.2554 0.110944C14.1844 0.0399076 14.088 0 13.9876 0H2.6103C2.50984 0 2.4135 0.0399076 2.34246 0.110944C2.27142 0.181981 2.23152 0.278327 2.23152 0.378788V4.02576H1.84455C1.35551 4.02632 0.886673 4.22084 0.540876 4.56663C0.195078 4.91243 0.000561414 5.38127 0 5.8703V23.1552C0.000960736 23.6441 0.195596 24.1127 0.541299 24.4585C0.887001 24.8042 1.35561 24.999 1.84455 25H14.7536C15.2426 24.999 15.7112 24.8042 16.0569 24.4585C16.4026 24.1127 16.5972 23.6441 16.5982 23.1552V5.87061C16.5977 5.38152 16.4032 4.9126 16.0574 4.56674C15.7116 4.22088 15.2427 4.02632 14.7536 4.02576V4.02576ZM13.6091 2.49424H11.8515V1.89394C11.8515 1.79348 11.8116 1.69713 11.7406 1.6261C11.6695 1.55506 11.5732 1.51515 11.4727 1.51515C11.3723 1.51515 11.2759 1.55506 11.2049 1.6261C11.1338 1.69713 11.0939 1.79348 11.0939 1.89394V2.49424H8.67788V0.757576H13.6088L13.6091 2.49424ZM5.50545 2.49424V0.757576H7.9203V2.49424H5.50545ZM4.74788 0.757576V2.49424H2.9903V0.757576H4.74788ZM1.84455 4.78333H4.20818C4.30864 4.78333 4.40499 4.74343 4.47603 4.67239C4.54706 4.60135 4.58697 4.50501 4.58697 4.40455C4.58697 4.30408 4.54706 4.20774 4.47603 4.1367C4.40499 4.06567 4.30864 4.02576 4.20818 4.02576H2.98909V3.25182H13.6088V4.02576H7.26364C7.16318 4.02576 7.06683 4.06567 6.99579 4.1367C6.92476 4.20774 6.88485 4.30408 6.88485 4.40455C6.88485 4.50501 6.92476 4.60135 6.99579 4.67239C7.06683 4.74343 7.16318 4.78333 7.26364 4.78333H14.7536C15.0418 4.78373 15.318 4.89838 15.5218 5.10214C15.7256 5.3059 15.8402 5.58214 15.8406 5.8703V10.7076C15.0962 10.7054 14.3707 10.9417 13.7703 11.3818C12.12 12.54 10.7097 11.9385 10.2533 11.683V7.87606C10.2533 7.7756 10.2134 7.67925 10.1424 7.60822C10.0714 7.53718 9.97501 7.49727 9.87455 7.49727H0.757576V5.87061C0.757896 5.58239 0.872509 5.30607 1.07628 5.10225C1.28005 4.89842 1.55633 4.78373 1.84455 4.78333V4.78333ZM14.7536 24.2424H1.84455C1.55633 24.242 1.28005 24.1273 1.07628 23.9235C0.872509 23.7197 0.757896 23.4434 0.757576 23.1552V8.25485H9.49576V21.0918H1.93545C1.83499 21.0918 1.73865 21.1317 1.66761 21.2028C1.59657 21.2738 1.55667 21.3701 1.55667 21.4706C1.55667 21.5711 1.59657 21.6674 1.66761 21.7385C1.73865 21.8095 1.83499 21.8494 1.93545 21.8494H9.87485C9.97531 21.8494 10.0717 21.8095 10.1427 21.7385C10.2137 21.6674 10.2536 21.5711 10.2536 21.4706V12.5139C10.7362 12.7125 11.2527 12.8154 11.7745 12.817C12.6503 12.807 13.5009 12.522 14.2058 12.0021C14.6795 11.6522 15.2532 11.4638 15.8421 11.4645V23.1552C15.8418 23.4436 15.727 23.7202 15.5229 23.924C15.3188 24.1279 15.0421 24.2424 14.7536 24.2424V24.2424Z" fill="black"/>
</svg>
