<svg width="25" height="25" viewBox="0 0 25 25" fill="none" xmlns="http://www.w3.org/2000/svg">
<path d="M24.4272 9.54984L23.7367 8.85946C23.7622 8.82225 24.5111 8.21239 24.5111 7.07411C24.5111 6.42186 24.257 5.80878 23.7957 5.34779L23.4505 5.00253L23.7955 4.65722C24.7496 3.70444 24.7506 2.15849 23.7958 1.20503C22.8421 0.250634 21.2978 0.250048 20.3438 1.20473L19.9981 1.55014L19.653 1.20498C18.6991 0.250439 17.1544 0.250097 16.2002 1.20488L16.1411 1.26391L15.4508 0.573583C14.6876 -0.189599 13.4523 -0.190136 12.6888 0.573436C11.9253 1.33628 11.9249 2.57221 12.6886 3.3353L15.4507 6.09735L6.09614 15.4518L3.33438 12.6901C2.57242 11.9269 1.33512 11.9258 0.572521 12.6896C-0.191101 13.4527 -0.191198 14.6884 0.572423 15.4521L1.26275 16.1424L1.20387 16.2013C0.249328 17.1551 0.248986 18.6999 1.20377 19.6541L1.54903 19.9993L1.20401 20.3446C0.249865 21.2974 0.248889 22.8434 1.20367 23.7969C2.15743 24.7512 3.70162 24.7519 4.65581 23.7971L5.00147 23.4517L5.34663 23.7969C6.30049 24.7514 7.84521 24.7518 8.79941 23.797L8.85839 23.738L9.54872 24.4284C10.312 25.1916 11.5473 25.192 12.3108 24.4285C13.0743 23.6657 13.0746 22.4297 12.311 21.6667L9.54892 18.9046L18.9034 9.55013L21.6652 12.3119C22.4271 13.0751 23.6644 13.0762 24.427 12.3123C25.1906 11.5492 25.1907 10.3135 24.4272 9.54984ZM21.0343 1.89531C21.6051 1.32402 22.5313 1.32094 23.1055 1.89565C23.6777 2.46709 23.6784 3.39413 23.1051 3.96664L22.76 4.31205L20.6886 2.24067L21.0343 1.89531ZM16.8908 1.89531C17.4631 1.32265 18.3897 1.32231 18.9623 1.89541L23.1053 6.03842C23.678 6.61068 23.6783 7.53729 23.1052 8.1099L23.0463 8.16893L16.8317 1.95444L16.8908 1.89531ZM3.96519 23.1065C3.39434 23.6778 2.46822 23.6809 1.894 23.1062C1.32174 22.5348 1.3211 21.6077 1.89434 21.0352L2.23946 20.6898L4.31084 22.7612L3.96519 23.1065ZM8.10864 23.1065C7.53638 23.6792 6.60977 23.6795 6.03716 23.1064L1.89415 18.9634C1.32149 18.3912 1.32115 17.4646 1.89425 16.892L1.95323 16.8329L8.16772 23.0474L8.10864 23.1065ZM11.6204 22.3572C12.0021 22.7384 12.0024 23.3561 11.6204 23.7378C11.2377 24.1204 10.6203 24.1189 10.2392 23.7378C9.83095 23.3296 1.70968 15.2083 1.2629 14.7615C0.884337 14.383 0.877843 13.7651 1.26319 13.3801C1.64303 12.9996 2.26138 12.9975 2.64356 13.3803L11.6204 22.3572ZM8.8583 18.2139L6.78677 16.1424L16.1412 6.78793L18.2128 8.8595L8.8583 18.2139ZM23.7363 11.6218C23.3565 12.0023 22.7381 12.0044 22.3559 11.6215L13.379 2.64467C12.9974 2.26347 12.9972 1.6458 13.3792 1.26411C13.7618 0.881493 14.3792 0.883006 14.7604 1.26411C15.2072 1.71093 23.3349 9.83865 23.7366 10.2404C24.1152 10.6189 24.1216 11.2368 23.7363 11.6218Z" fill="black"/>
</svg>
