<svg width="25" height="25" viewBox="0 0 25 25" fill="none" xmlns="http://www.w3.org/2000/svg">
<g clip-path="url(#clip0)">
<path d="M24.6025 7.12292L22.0833 2.80417V1.66667C22.0833 1.20641 22.4564 0.833333 22.9167 0.833333C23.3769 0.833333 23.75 1.20641 23.75 1.66667C23.75 2.12693 23.3769 2.5 22.9167 2.5V3.33333C23.8371 3.33333 24.5833 2.58714 24.5833 1.66667C24.5833 0.746198 23.8371 0 22.9167 0H10.4167C9.4962 0 8.75 0.746198 8.75 1.66667V2.81833L6.55792 7.2025C6.35578 7.60771 6.25042 8.05427 6.25 8.50708V12.0833H7.08333V8.50708C7.08385 8.18359 7.15911 7.86458 7.30333 7.575L9.42417 3.33333H20.9925L19.0579 7.2025C18.8558 7.60771 18.7504 8.05427 18.75 8.50708V19.1667H12.5V20H22.9167C24.0667 19.9986 24.9986 19.0667 25 17.9167V8.5925C24.9997 8.07609 24.8626 7.56901 24.6025 7.12292ZM9.58333 2.5V1.66667C9.58333 1.20641 9.95641 0.833333 10.4167 0.833333H21.4737C21.4409 0.890365 21.4115 0.949375 21.3858 1.01L21.3804 1.02083C21.3438 1.11036 21.3151 1.20297 21.2946 1.2975C21.2892 1.32042 21.2846 1.34375 21.2804 1.3675C21.2612 1.46609 21.251 1.56625 21.25 1.66667V2.5H9.58333ZM24.1667 17.9167C24.1667 18.607 23.607 19.1667 22.9167 19.1667H19.5833V8.50708C19.5839 8.18359 19.6591 7.86458 19.8033 7.575L21.695 3.79208L23.8829 7.54208C24.0688 7.86094 24.1667 8.22344 24.1667 8.5925V17.9167Z" fill="black"/>
<path d="M11.25 16.6668H10.5779L6.67418 13.118C6.19819 12.6827 5.4685 12.6827 4.99251 13.118L1.08876 16.6668H0.416675C0.186571 16.6668 8.8041e-06 16.8533 8.8041e-06 17.0834V20.0001C-0.00348078 22.0075 1.03058 23.8742 2.73418 24.936C2.80048 24.9779 2.87735 25.0002 2.95584 25.0001H8.71084C8.78933 25.0002 8.86621 24.9779 8.93251 24.936C10.6361 23.8742 11.6702 22.0075 11.6667 20.0001V17.0834C11.6667 16.8533 11.4801 16.6668 11.25 16.6668ZM5.55334 13.7347C5.71162 13.5892 5.95501 13.5892 6.11334 13.7347L9.33918 16.6668H2.32751L5.55334 13.7347ZM10.8333 20.0001C10.8361 21.679 9.99168 23.2459 8.58792 24.1668H3.07876C1.67501 23.2459 0.830582 21.679 0.833342 20.0001V17.5001H10.8333V20.0001Z" fill="black"/>
<path d="M16.2501 5.83316H15.4167V7.08316H15.0001C14.8638 7.08363 14.7278 7.09758 14.5942 7.12482C14.7891 6.168 14.3812 5.18904 13.5647 4.65357C13.4247 4.56014 13.2422 4.56014 13.1022 4.65357C12.2856 5.18904 11.8777 6.168 12.0726 7.12482C11.939 7.09758 11.8031 7.08363 11.6667 7.08316H11.2501V5.83316H10.4167V8.33316C10.4183 8.78545 10.5685 9.22467 10.8442 9.58316H10.8334C10.6033 9.58316 10.4167 9.76972 10.4167 9.99982V10.8332C10.4183 11.2854 10.5685 11.7247 10.8442 12.0832H10.8334C10.6033 12.0832 10.4167 12.2697 10.4167 12.4998V13.3332C10.4181 14.4832 11.3501 15.4151 12.5001 15.4165H12.9167V17.0832H13.7501V15.4165H14.1667C15.3167 15.4151 16.2487 14.4832 16.2501 13.3332V12.4998C16.2501 12.2697 16.0635 12.0832 15.8334 12.0832H15.8226C16.0983 11.7247 16.2486 11.2854 16.2501 10.8332V9.99982C16.2501 9.76972 16.0635 9.58316 15.8334 9.58316H15.8226C16.0983 9.22467 16.2486 8.78545 16.2501 8.33316V5.83316ZM12.9167 14.5832H12.5001C11.8097 14.5832 11.2501 14.0235 11.2501 13.3332V12.9165H11.6667C12.3571 12.9165 12.9167 13.4761 12.9167 14.1665V14.5832ZM12.9167 12.0832H12.5001C11.8097 12.0832 11.2501 11.5235 11.2501 10.8332V10.4165H11.6667C12.3571 10.4165 12.9167 10.9761 12.9167 11.6665V12.0832ZM12.9167 9.58316H12.5001C11.8097 9.58316 11.2501 9.02352 11.2501 8.33316V7.91649H11.6667C12.3571 7.91649 12.9167 8.47613 12.9167 9.16649V9.58316ZM13.3334 12.9294C13.3301 12.9248 13.3263 12.9211 13.3226 12.9165H13.3334H13.3442C13.3405 12.9211 13.3367 12.9248 13.3334 12.9294ZM13.3334 10.4294C13.3301 10.4248 13.3263 10.4211 13.3226 10.4165H13.3334H13.3442C13.3405 10.4211 13.3367 10.4248 13.3334 10.4294ZM13.3526 7.78144C13.3463 7.7879 13.3399 7.7943 13.3334 7.80066C12.707 7.18488 12.6984 6.17795 13.3142 5.55154C13.3206 5.54508 13.327 5.53868 13.3334 5.53232C13.9598 6.14811 13.9684 7.15503 13.3526 7.78144ZM15.4167 13.3332C15.4167 14.0235 14.8571 14.5832 14.1667 14.5832H13.7501V14.1665C13.7501 13.4761 14.3097 12.9165 15.0001 12.9165H15.4167V13.3332ZM15.4167 10.8332C15.4167 11.5235 14.8571 12.0832 14.1667 12.0832H13.7501V11.6665C13.7501 10.9761 14.3097 10.4165 15.0001 10.4165H15.4167V10.8332ZM15.4167 8.33316C15.4167 9.02352 14.8571 9.58316 14.1667 9.58316H13.7501V9.16649C13.7501 8.47613 14.3097 7.91649 15.0001 7.91649H15.4167V8.33316Z" fill="black"/>
</g>
<defs>
<clipPath id="clip0">
<rect width="25" height="25" fill="white"/>
</clipPath>
</defs>
</svg>
