<svg width="26" height="25" viewBox="0 0 26 25" fill="none" xmlns="http://www.w3.org/2000/svg">
<path d="M24.4906 15.2274H25.317V17.9427H24.4906V15.2274ZM25.317 4.36807H24.4906V7.08307H25.317V4.36807ZM25.317 20.6574H24.4906V21.4838H23.6643V22.3101H25.317V20.6574ZM25.317 9.79737H24.4906V12.5127H25.317V9.79737ZM24.4906 1.65271H25.317V0H23.6643V0.826353H24.4906V1.65271ZM18.2364 22.3101H20.951V21.4838H18.2364V22.3101ZM3.83355 0.826353H4.65991V0H3.0072V1.65271H3.83355V0.826353ZM20.9492 0H18.2349V0.826353H20.9492V0ZM3.83355 4.36807H3.0072V7.08307H3.83355V4.36807ZM0 23.9052C0 23.3031 0.488171 22.8149 1.0906 22.8149C1.44081 22.8149 1.75211 22.9798 1.95162 23.2369C2.03758 23.186 2.12849 23.0013 2.18792 22.886C2.41821 22.4548 2.62905 22.0678 2.89825 21.7077C2.39204 20.9669 1.78041 20.0995 1.21689 19.2983C0.905592 18.8561 0.623656 18.1911 1.00889 17.6336C1.03789 17.6336 1.0669 17.6336 1.09555 17.6336C1.88865 18.7139 2.66548 19.8095 3.4745 20.8739C4.28175 19.8095 5.05964 18.7139 5.85274 17.6336C5.8814 17.6336 5.9104 17.6336 5.9387 17.6336C6.32535 18.1911 6.042 18.8561 5.73141 19.2983C5.16683 20.0995 4.55626 20.9676 4.05146 21.7077C4.32031 22.0685 4.53079 22.4541 4.76108 22.886C4.82228 23.0013 4.91319 23.1846 4.99809 23.2369C5.19725 22.9794 5.5089 22.8149 5.85911 22.8149C6.46154 22.8149 6.94971 23.3024 6.94971 23.9052C6.94971 24.4301 6.57722 24.8688 6.08303 24.9721C6.0473 24.9841 6.01193 24.9929 5.97408 25C5.8814 25 5.78836 25 5.69639 25C5.43178 24.9501 5.10846 24.7839 4.95175 24.5338C4.8343 24.3477 4.76108 24.1004 4.67406 23.8754C4.42042 23.2203 4.04651 22.6628 3.47415 22.3327C2.90072 22.6631 2.52646 23.2207 2.27388 23.8754C2.18616 24.1001 2.11187 24.3477 1.99619 24.5338C1.83878 24.7849 1.5151 24.9519 1.2505 25C1.15887 25 1.06584 25 0.972804 25C0.93566 24.9926 0.900286 24.9823 0.865619 24.9721C0.372495 24.8688 0 24.4305 0 23.9052ZM5.26481 23.9052C5.26481 24.2334 5.53189 24.5016 5.86088 24.5016C6.18986 24.5016 6.45765 24.2345 6.45765 23.9052C6.45765 23.5765 6.19128 23.3087 5.86088 23.3087C5.53048 23.3087 5.26481 23.5751 5.26481 23.9052ZM0.493123 23.9052C0.493123 24.2334 0.760202 24.5016 1.0906 24.5016C1.41923 24.5016 1.68667 24.2345 1.68667 23.9052C1.68667 23.5765 1.41959 23.3087 1.0906 23.3087C0.761617 23.3091 0.493123 23.5751 0.493123 23.9052ZM3.83355 15.2274H3.0072V17.9427H3.83355V15.2274ZM3.83355 9.79737H3.0072V12.5127H3.83355V9.79737ZM7.37527 22.3101H10.0906V21.4838H7.37527V22.3101ZM10.0906 0H7.37527V0.826353H10.0906V0ZM13.7883 15.7124V11.3287C12.6256 11.108 11.7663 10.7412 11.2109 10.2265C10.6556 9.71177 10.3782 8.99861 10.3782 8.08665C10.3782 7.27233 10.6771 6.5383 11.2746 5.88352C11.8725 5.22909 12.7098 4.89762 13.788 4.88631V3.81728H14.5535V4.87003C15.6204 4.94503 16.4383 5.25915 17.0096 5.81312C17.5809 6.36674 17.8794 7.09864 17.9067 8.00671H16.4995C16.4616 7.59919 16.3516 7.24827 16.1701 6.95325C15.8326 6.41202 15.2932 6.12866 14.5546 6.10107V10.017C15.7976 10.3666 16.6403 10.6931 17.086 10.9987C17.8097 11.5028 18.1713 12.2488 18.1713 13.2358C18.1713 14.6625 17.7072 15.6738 16.7789 16.2748C16.2649 16.6088 15.5224 16.8281 14.5528 16.9356V18.4953H13.7891V16.9356C12.2287 16.8341 11.1706 16.2812 10.6117 15.279C10.3057 14.7374 10.1543 14.0055 10.1543 13.0833H11.5767C11.6199 13.8184 11.7359 14.3533 11.9252 14.6915C12.2612 15.296 12.8817 15.6356 13.7883 15.7124ZM14.5539 15.7513C15.469 15.7078 16.1029 15.3738 16.4499 14.7452C16.6332 14.4233 16.7241 14.0512 16.7241 13.626C16.7241 12.956 16.4772 12.4473 15.9841 12.0989C15.7007 11.8947 15.2231 11.7023 14.5535 11.5194V15.7513H14.5539ZM13.7883 9.86423V6.0848C13.0812 6.11239 12.5761 6.32606 12.2764 6.72862C11.9761 7.13012 11.8261 7.55037 11.8261 7.99008C11.8261 8.52141 12.003 8.93706 12.3581 9.23668C12.7115 9.53701 13.1891 9.74679 13.7883 9.86423ZM15.5203 0H12.806V0.826353H15.5203V0ZM15.5203 21.4838H12.806V22.3101H15.5203V21.4838Z" fill="black"/>
</svg>
