<svg width="25" height="22" viewBox="0 0 25 22" fill="none" xmlns="http://www.w3.org/2000/svg">
<path d="M24.2188 0H21.2647C21.2368 0 21.213 0.0130335 21.1859 0.0158945C21.1292 0.0216801 21.0763 0.0310896 21.0232 0.0487643C20.9788 0.0634508 20.9386 0.0815704 20.8981 0.103568C20.8515 0.128936 20.8095 0.156465 20.7689 0.190734C20.7315 0.222141 20.6998 0.255583 20.6689 0.293285C20.637 0.332131 20.6098 0.371677 20.5857 0.41669C20.5607 0.462911 20.5431 0.51034 20.5278 0.561584C20.5195 0.589367 20.5015 0.611683 20.4961 0.640866L20.0487 3.08601L0.930411 4.20326C0.857169 4.19818 0.792574 4.20886 0.710685 4.21649C0.285985 4.25514 -0.0293617 4.62746 0.00217293 5.05267C0.00471604 5.08471 0.00878511 5.11573 0.0148885 5.14625L1.34697 12.4114C1.65164 13.538 2.59005 14.6753 4.00148 14.6753H17.928L17.6299 16.3049H5.91136C4.42771 16.3049 3.22023 17.5124 3.22023 18.9961C3.22023 20.4802 4.42771 21.6877 5.91136 21.6877C7.39502 21.6877 8.60249 20.4802 8.60249 18.9961C8.60249 18.5918 8.50642 18.2118 8.34595 17.8674H15.5418C15.3814 18.2118 15.2853 18.5918 15.2853 18.9961C15.2853 20.4802 16.4928 21.6877 17.9764 21.6877C19.4601 21.6877 20.6675 20.4802 20.6675 18.9961C20.6675 17.9411 20.0515 17.0351 19.1653 16.5942L21.9159 1.56249H24.2188C24.6501 1.56249 25 1.21256 25 0.781246C25 0.349933 24.6501 0 24.2188 0ZM18.7731 10.0572L15.4624 10.1092L15.6427 8.19055L19.1338 8.0859L18.7731 10.0572ZM2.23376 8.59256L5.54204 8.49338L5.75846 10.2615L2.54853 10.312L2.23376 8.59256ZM6.58713 8.46203L10.2235 8.35306V10.1914L6.80546 10.2451L6.58713 8.46203ZM10.2235 7.31044L6.45997 7.4233L6.21952 5.45937L10.2235 5.22528V7.31044ZM11.2651 5.16437L14.9008 4.95177L14.6917 7.17649L11.2651 7.27923V5.16437ZM10.2235 11.2333V13.1128H7.15653L6.93274 11.285L10.2235 11.2333ZM11.2651 11.217L14.3166 11.1691L14.1339 13.1128H11.2651V11.217ZM11.2651 10.1751V8.32184L14.5935 8.22202L14.4146 10.1256L11.2651 10.1751ZM19.3256 7.03757L15.741 7.14501L15.9528 4.89029L19.7593 4.6677L19.3256 7.03757ZM5.17799 5.52028L5.41482 7.45458L2.04385 7.55566C1.90182 6.78396 1.78871 6.18423 1.69233 5.72405L5.17799 5.52028ZM2.86979 12.0671L2.73869 11.3509L5.8858 11.3015L6.10756 13.1128H4.00148C3.33213 13.1128 2.95931 12.3875 2.86979 12.0671ZM15.1802 13.1128L15.3644 11.1526L18.5819 11.1021L18.2139 13.1128H15.1802ZM7.04 18.9961C7.04 19.6186 6.53392 20.1252 5.91136 20.1252C5.28881 20.1252 4.78273 19.6186 4.78273 18.9961C4.78273 18.3735 5.28881 17.8674 5.91136 17.8674C6.53392 17.8674 7.04 18.3735 7.04 18.9961ZM17.9764 20.1252C17.3539 20.1252 16.8478 19.6186 16.8478 18.9961C16.8478 18.3735 17.3539 17.8674 17.9764 17.8674C18.599 17.8674 19.1051 18.3735 19.1051 18.9961C19.1051 19.6186 18.599 20.1252 17.9764 20.1252Z" fill="white"/>
</svg>
