<svg width="30" height="30" viewBox="0 0 30 30" fill="none" xmlns="http://www.w3.org/2000/svg">
<circle cx="15" cy="15" r="15" fill="white"/>
<path d="M21.1921 11.7165V9.31216V8.95276L20.8327 8.95398L18.4283 8.96251L18.4375 11.7257L21.1921 11.7165Z" fill="#AAAAAA"/>
<path d="M14.9257 18.0983C16.5083 18.0983 17.7966 16.8111 17.7966 15.2285C17.7966 14.6041 17.5932 14.0254 17.2527 13.5545C16.7318 12.8321 15.8833 12.3575 14.9257 12.3575C13.9681 12.3575 13.1207 12.8321 12.5987 13.5545C12.2582 14.0254 12.0559 14.6041 12.0559 15.2285C12.0559 16.8111 13.3431 18.0983 14.9257 18.0983Z" fill="#AAAAAA"/>
<path d="M15.0006 0C6.71601 0 0 6.71479 0 14.9994C0 23.284 6.71601 30 15.0006 30C23.284 30 30 23.284 30 14.9994C30 6.71479 23.2834 0 15.0006 0ZM23.0799 13.5545V20.2315C23.0799 21.9688 21.6654 23.3821 19.9281 23.3821H9.92264C8.1847 23.3821 6.77144 21.9688 6.77144 20.2315V13.5545V10.226C6.77144 8.48806 8.1847 7.0748 9.92264 7.0748H19.9281C21.6654 7.0748 23.0799 8.48806 23.0799 10.226V13.5545Z" fill="#AAAAAA"/>
<path d="M19.3847 15.2285C19.3847 17.6865 17.3848 19.6876 14.9257 19.6876C12.4665 19.6876 10.4678 17.6865 10.4678 15.2285C10.4678 14.6358 10.5854 14.0724 10.7949 13.5546H8.36072V20.2316C8.36072 21.0929 9.06125 21.7935 9.92261 21.7935H19.9281C20.7894 21.7935 21.49 21.0929 21.49 20.2316V13.5546H19.0546C19.2659 14.0724 19.3847 14.6364 19.3847 15.2285Z" fill="#AAAAAA"/>
</svg>
