<svg width="18" height="15" viewBox="0 0 18 15" fill="none" xmlns="http://www.w3.org/2000/svg">
    <path d="M17.3057 11.4335H1.36901C1.07641 11.4335 0.837646 11.6907 0.837646 12.0059V14.4505C0.837646 14.7528 1.07641 15 1.36901 15H17.3057C17.599 15 17.837 14.7528 17.837 14.4498V12.0059C17.837 11.6907 17.599 11.4335 17.3057 11.4335ZM17.3057 5.71674H1.36901C1.07641 5.71674 0.837646 5.97399 0.837646 6.28912V8.73374C0.837646 9.03673 1.07641 9.28326 1.36901 9.28326H17.3057C17.599 9.28326 17.837 9.03673 17.837 8.73374V6.28912C17.837 5.97399 17.599 5.71674 17.3057 5.71674ZM17.3057 0H1.36901C1.07641 0 0.837646 0.257253 0.837646 0.572388V3.01629C0.837646 3.31857 1.07641 3.56581 1.36901 3.56581H17.3057C17.599 3.56581 17.837 3.31857 17.837 3.01629V0.572388C17.837 0.257253 17.599 0 17.3057 0Z" fill="white"/>
</svg>
