<svg width="25" height="25" viewBox="0 0 25 25" fill="none" xmlns="http://www.w3.org/2000/svg">
<circle cx="12.5" cy="12.5" r="12.5" fill="#AAAAAA"/>
<path d="M18.0557 15.7197C18.0557 15.8618 18.0294 16.0472 17.9768 16.276C17.9242 16.5049 17.869 16.6851 17.8111 16.8166C17.7006 17.0797 17.3797 17.3585 16.8484 17.6531C16.3538 17.9214 15.8646 18.0556 15.3806 18.0556C15.2385 18.0556 15.1004 18.0464 14.9663 18.0279C14.8321 18.0095 14.6809 17.9766 14.5125 17.9293C14.3442 17.882 14.2192 17.8438 14.1377 17.8149C14.0561 17.7859 13.9101 17.732 13.6997 17.6531C13.4892 17.5742 13.3604 17.5268 13.313 17.5111C12.7974 17.3269 12.3371 17.1086 11.932 16.8561C11.2586 16.4405 10.5629 15.8736 9.84473 15.1555C9.12662 14.4374 8.55975 13.7416 8.14414 13.0682C7.89161 12.6631 7.67328 12.2028 7.48915 11.6872C7.47337 11.6398 7.42602 11.511 7.3471 11.3005C7.26819 11.0901 7.21426 10.9441 7.18533 10.8625C7.15639 10.781 7.11825 10.6561 7.0709 10.4877C7.02356 10.3194 6.99067 10.1681 6.97226 10.0339C6.95385 9.89979 6.94464 9.76169 6.94464 9.61965C6.94464 9.13564 7.0788 8.64637 7.3471 8.15184C7.64172 7.62049 7.92055 7.29957 8.18359 7.18909C8.31512 7.13122 8.4953 7.07598 8.72415 7.02337C8.953 6.97076 9.13845 6.94446 9.2805 6.94446C9.35415 6.94446 9.40939 6.95235 9.44622 6.96813C9.54091 6.9997 9.68033 7.19961 9.86446 7.56788C9.92233 7.66784 10.0012 7.80988 10.1012 7.99402C10.2012 8.17815 10.2932 8.34518 10.3774 8.49512C10.4616 8.64506 10.5431 8.78579 10.622 8.91731C10.6378 8.93835 10.6839 9.00412 10.7601 9.1146C10.8364 9.22508 10.893 9.31846 10.9298 9.39474C10.9666 9.47102 10.985 9.54599 10.985 9.61965C10.985 9.72486 10.9101 9.85639 10.7601 10.0142C10.6102 10.172 10.4471 10.3167 10.2709 10.4482C10.0946 10.5798 9.93154 10.7192 9.7816 10.8665C9.63167 11.0138 9.5567 11.1348 9.5567 11.2295C9.5567 11.2768 9.56985 11.336 9.59615 11.407C9.62246 11.4781 9.64482 11.532 9.66323 11.5688C9.68164 11.6057 9.71847 11.6688 9.77371 11.7582C9.82895 11.8477 9.8592 11.8976 9.86446 11.9082C10.2643 12.6289 10.722 13.2471 11.2376 13.7626C11.7531 14.2782 12.3713 14.7359 13.092 15.1357C13.1026 15.141 13.1525 15.1713 13.242 15.2265C13.3314 15.2817 13.3946 15.3186 13.4314 15.337C13.4682 15.3554 13.5221 15.3777 13.5932 15.404C13.6642 15.4304 13.7234 15.4435 13.7707 15.4435C13.8654 15.4435 13.9864 15.3685 14.1337 15.2186C14.281 15.0687 14.4204 14.9056 14.552 14.7293C14.6835 14.5531 14.8282 14.39 14.986 14.2401C15.1438 14.0901 15.2753 14.0152 15.3806 14.0152C15.4542 14.0152 15.5292 14.0336 15.6055 14.0704C15.6817 14.1072 15.7751 14.1638 15.8856 14.2401C15.9961 14.3163 16.0618 14.3624 16.0829 14.3782C16.2144 14.4571 16.3551 14.5386 16.5051 14.6228C16.655 14.707 16.8221 14.799 17.0062 14.899C17.1903 14.999 17.3324 15.0779 17.4323 15.1357C17.8006 15.3199 18.0005 15.4593 18.0321 15.554C18.0479 15.5908 18.0557 15.6461 18.0557 15.7197Z" fill="white"/>
</svg>
