<svg width="30" height="30" viewBox="0 0 30 30" fill="none" xmlns="http://www.w3.org/2000/svg">
<circle cx="15" cy="15" r="15" fill="#F48221"/>
<path d="M21.6668 18.8636C21.6668 19.0341 21.6353 19.2566 21.5721 19.5312C21.509 19.8058 21.4427 20.0221 21.3733 20.1799C21.2407 20.4956 20.8556 20.8301 20.218 21.1837C19.6245 21.5057 19.0374 21.6666 18.4566 21.6666C18.2861 21.6666 18.1204 21.6556 17.9594 21.6335C17.7985 21.6114 17.6169 21.5719 17.4149 21.5151C17.2129 21.4583 17.063 21.4125 16.9651 21.3778C16.8673 21.3431 16.6921 21.2784 16.4395 21.1837C16.187 21.089 16.0324 21.0322 15.9755 21.0132C15.3568 20.7923 14.8045 20.5303 14.3183 20.2272C13.5103 19.7285 12.6753 19.0483 11.8136 18.1865C10.9519 17.3248 10.2716 16.4899 9.77289 15.6818C9.46986 15.1957 9.20786 14.6433 8.9869 14.0246C8.96797 13.9678 8.91115 13.8131 8.81645 13.5606C8.72175 13.3081 8.65704 13.1329 8.62232 13.035C8.5876 12.9372 8.54183 12.7872 8.48501 12.5852C8.42819 12.3832 8.38874 12.2017 8.36664 12.0407C8.34454 11.8797 8.3335 11.714 8.3335 11.5435C8.3335 10.9627 8.49448 10.3756 8.81645 9.78218C9.16999 9.14455 9.50458 8.75945 9.82024 8.62687C9.97807 8.55743 10.1943 8.49114 10.4689 8.42801C10.7435 8.36488 10.9661 8.33331 11.1365 8.33331C11.2249 8.33331 11.2912 8.34278 11.3354 8.36172C11.449 8.3996 11.6163 8.6395 11.8373 9.08142C11.9067 9.20137 12.0014 9.37182 12.1214 9.59278C12.2413 9.81374 12.3518 10.0142 12.4528 10.1941C12.5538 10.374 12.6517 10.5429 12.7464 10.7007C12.7653 10.726 12.8206 10.8049 12.9121 10.9375C13.0036 11.0701 13.0715 11.1821 13.1157 11.2737C13.1599 11.3652 13.182 11.4552 13.182 11.5435C13.182 11.6698 13.092 11.8276 12.9121 12.017C12.7322 12.2064 12.5365 12.38 12.325 12.5379C12.1135 12.6957 11.9178 12.863 11.7378 13.0397C11.5579 13.2165 11.468 13.3617 11.468 13.4754C11.468 13.5322 11.4837 13.6032 11.5153 13.6884C11.5469 13.7736 11.5737 13.8384 11.5958 13.8826C11.6179 13.9267 11.6621 14.0025 11.7284 14.1098C11.7947 14.2171 11.831 14.2771 11.8373 14.2897C12.3171 15.1546 12.8663 15.8964 13.485 16.5151C14.1037 17.1338 14.8455 17.6831 15.7104 18.1629C15.723 18.1692 15.783 18.2055 15.8903 18.2718C15.9976 18.338 16.0734 18.3822 16.1176 18.4043C16.1618 18.4264 16.2265 18.4533 16.3117 18.4848C16.3969 18.5164 16.468 18.5322 16.5248 18.5322C16.6384 18.5322 16.7836 18.4422 16.9604 18.2623C17.1371 18.0824 17.3044 17.8867 17.4623 17.6752C17.6201 17.4637 17.7937 17.268 17.9831 17.088C18.1725 16.9081 18.3303 16.8182 18.4566 16.8182C18.545 16.8182 18.6349 16.8403 18.7265 16.8844C18.818 16.9286 18.9301 16.9965 19.0627 17.088C19.1952 17.1796 19.2741 17.2348 19.2994 17.2538C19.4572 17.3485 19.6261 17.4463 19.806 17.5473C19.9859 17.6483 20.1864 17.7588 20.4073 17.8788C20.6283 17.9987 20.7988 18.0934 20.9187 18.1629C21.3606 18.3838 21.6005 18.5511 21.6384 18.6647C21.6573 18.7089 21.6668 18.7752 21.6668 18.8636Z" fill="white"/>
</svg>
