<svg width="19" height="19" viewBox="0 0 19 19" fill="none" xmlns="http://www.w3.org/2000/svg">
<path d="M18.5882 8.24934C18.9621 7.88487 19.0942 7.34995 18.9328 6.8527C18.7712 6.35545 18.35 6.00049 17.8326 5.92516L13.2322 5.25671C13.0362 5.22817 12.8669 5.10529 12.7794 4.92762L10.7227 0.759382C10.4918 0.291046 10.023 0 9.50068 0C8.9787 0 8.50998 0.291046 8.27905 0.759382L6.22194 4.928C6.13444 5.10567 5.96476 5.22855 5.76882 5.25709L1.1684 5.92554C0.651363 6.00049 0.229822 6.35583 0.0681298 6.85308C-0.0931819 7.35033 0.038835 7.88525 0.412819 8.24972L3.74139 11.4942C3.8833 11.6327 3.94836 11.8321 3.91488 12.0269L3.12963 16.6083C3.06001 17.0115 3.16577 17.4038 3.42676 17.7131C3.83232 18.1951 4.54034 18.342 5.10646 18.0445L9.22066 15.8812C9.39263 15.791 9.60911 15.7918 9.78069 15.8812L13.8953 18.0445C14.0954 18.1498 14.3088 18.2031 14.5291 18.2031C14.9313 18.2031 15.3125 18.0243 15.5746 17.7131C15.836 17.4038 15.9414 17.0108 15.8717 16.6083L15.0861 12.0269C15.0526 11.8317 15.1177 11.6327 15.2596 11.4942L18.5882 8.24934Z" fill="#FCD712"/>
</svg>
