<svg width="19" height="19" viewBox="0 0 19 19" fill="none" xmlns="http://www.w3.org/2000/svg">
<path d="M18.5877 8.77351C18.9617 8.40904 19.0937 7.87412 18.9324 7.37687C18.7707 6.87962 18.3495 6.52466 17.8321 6.44933L13.2317 5.78088C13.0357 5.75234 12.8664 5.62946 12.7789 5.45179L10.7222 1.28355C10.4913 0.815216 10.0226 0.52417 9.50019 0.52417C8.97821 0.52417 8.50949 0.815216 8.27856 1.28355L6.22145 5.45217C6.13395 5.62984 5.96427 5.75272 5.76834 5.78126L1.16791 6.44971C0.650875 6.52466 0.229334 6.88 0.0676415 7.37725C-0.0936702 7.8745 0.0383467 8.40942 0.412331 8.77389L3.74091 12.0184C3.88282 12.1569 3.94787 12.3562 3.91439 12.551L3.12914 17.1324C3.05952 17.5357 3.16528 17.9279 3.42627 18.2373C3.83183 18.7193 4.53986 18.8661 5.10597 18.5686L9.22018 16.4054C9.39214 16.3152 9.60862 16.316 9.7802 16.4054L13.8948 18.5686C14.0949 18.674 14.3083 18.7273 14.5286 18.7273C14.9308 18.7273 15.312 18.5485 15.5741 18.2373C15.8355 17.9279 15.9409 17.5349 15.8712 17.1324L15.0856 12.551C15.0521 12.3558 15.1172 12.1569 15.2591 12.0184L18.5877 8.77351Z" fill="#DDDDDD"/>
</svg>
