<svg width="59" height="59" viewBox="0 0 59 59" fill="none" xmlns="http://www.w3.org/2000/svg">
    <g clip-path="url(#clip0)">
        <path d="M16.3645 33.5724C16.0472 33.5724 15.7472 33.6516 15.4724 33.808L14.6061 34.3007L13.7398 33.808C13.465 33.6516 13.1651 33.5724 12.8477 33.5724C11.8497 33.5724 11.0378 34.3844 11.0378 35.3824V36.4472C11.0378 38.415 12.6386 40.0156 14.6062 40.0156C16.5737 40.0156 18.1746 38.4151 18.1746 36.4472V35.3824C18.1743 34.3844 17.3625 33.5724 16.3645 33.5724Z"
              fill="#F48221"/>
        <path d="M3.44229 25.2563V46.2089H38.7808V25.2563H3.44229ZM21.6796 36.4472C21.6796 40.3475 18.5063 43.5206 14.6061 43.5206C10.7058 43.5206 7.53255 40.3475 7.53255 36.4472V35.3824C7.53255 32.4517 9.91698 30.0672 12.8477 30.0672C12.8497 30.0672 12.8515 30.0674 12.8536 30.0674V27.9445H16.3587V30.0674C16.3606 30.0674 16.3625 30.0672 16.3645 30.0672C19.2952 30.0672 21.6797 32.4517 21.6797 35.3824V36.4472H21.6796ZM34.6906 43.2685H23.6482V39.7634H34.6906V43.2685ZM34.6906 37.4267H23.6482V33.9216H34.6906V37.4267ZM34.6906 31.5849H23.6482V28.0798H34.6906V31.5849Z"
              fill="#F48221"/>
        <path d="M50.4715 10.1495H8.52852C5.40773 12.9556 3.44229 17.0179 3.44229 21.5299V21.7512H42.286V49.7142H3.44229V51.247C3.44229 55.5221 6.92676 59 11.2098 59H47.7903C52.0734 59 55.5578 55.522 55.5578 51.247V21.5299C55.5577 17.0179 53.5923 12.9556 50.4715 10.1495Z"
              fill="#F48221"/>
        <path d="M41.6736 0H17.3266C14.6478 0 12.4686 2.17909 12.4686 4.85771C12.4686 5.48839 12.5909 6.09096 12.8105 6.64443H46.1895C46.4092 6.09096 46.5314 5.48839 46.5314 4.85771C46.5314 2.17909 44.3521 0 41.6736 0Z"
              fill="#F48221"/>
    </g>
    <defs>
        <clipPath id="clip0">
            <rect width="59" height="59" fill="white"/>
        </clipPath>
    </defs>
</svg>
