<svg width="75" height="50" viewBox="0 0 75 50" fill="none" xmlns="http://www.w3.org/2000/svg">
    <path d="M74.999 25.2508C74.999 25.2367 74.9983 25.2227 74.9981 25.2087C74.9775 24.2688 74.2228 23.5199 73.2715 23.5199H72.8181L65.8167 9.98354C65.5214 9.41197 64.9322 9.05607 64.2818 9.05589L52.3285 9.0534L52.7845 5.43864C52.9146 3.99409 52.468 2.63012 51.5267 1.59774C50.5871 0.567491 49.2754 0 47.8328 0H10.7338C9.80096 0 9.00857 0.721746 8.91964 1.65224L8.54776 4.63046H29.685C31.0574 4.63046 32.141 5.74307 32.1051 7.11556C32.0691 8.48804 30.9273 9.60066 29.5548 9.60066H22.5044C22.5057 9.60421 22.5069 9.60776 22.5082 9.61113H1.80409C0.833477 9.61113 0.0259965 10.3978 0.000612979 11.3685C-0.0247706 12.3391 0.74135 13.1258 1.71196 13.1258H29.1219C30.3943 13.3217 31.3448 14.4221 31.3099 15.7543C31.2715 17.2173 30.0604 18.4036 28.5999 18.4158H9.7028C8.72243 18.4158 7.90696 19.2105 7.88122 20.1909C7.85548 21.1713 8.62942 21.966 9.60979 21.966H28.2843C29.5753 22.1458 30.5448 23.255 30.5097 24.6002C30.4711 26.0707 29.2478 27.2628 27.7773 27.2628H6.35342V27.2648H4.55332C3.57295 27.2648 2.75748 28.0595 2.73174 29.0398C2.706 30.0202 3.47975 30.8149 4.4603 30.8149H6.01385L5.40624 37.1729C5.27595 38.6172 5.72256 39.9812 6.66406 41.0136C7.60342 42.044 8.91538 42.6113 10.358 42.6113H11.6982C12.3368 46.2634 15.4965 49.0227 19.3613 49.0227C23.2262 49.0227 26.5303 46.2634 27.3598 42.6115H44.0843C45.4366 42.6115 46.7168 42.0944 47.7208 41.2479C48.6388 42.129 49.8558 42.6115 51.1846 42.6115H51.4598C52.0983 46.2634 55.2579 49.0227 59.1229 49.0227C62.9878 49.0227 66.2919 46.2634 67.1214 42.6115H68.2253C71.1011 42.6115 73.6515 40.2736 73.9107 37.3999L74.9924 25.4171C74.9939 25.4009 74.9931 25.385 74.9942 25.3686C74.996 25.344 74.9994 25.3198 75.0001 25.295C75.0004 25.2801 74.999 25.2657 74.999 25.2508ZM19.4543 45.4726C17.0074 45.4726 15.0687 43.482 15.1327 41.0351C15.1968 38.5879 17.2398 36.5972 19.6867 36.5972C22.1336 36.5972 24.0722 38.5879 24.0081 41.0351C23.944 43.482 21.9013 45.4726 19.4543 45.4726ZM59.2159 45.4726C56.769 45.4726 54.8305 43.482 54.8944 41.0351C54.9584 38.5879 57.0014 36.5972 59.4483 36.5972C61.8952 36.5972 63.834 38.5879 63.7697 41.0351C63.7056 43.482 61.6629 45.4726 59.2159 45.4726ZM70.3741 37.1729C70.2817 38.1965 69.3404 39.0614 68.3185 39.0614H67.1244C66.3338 35.6083 63.2647 33.0471 59.5411 33.0471C55.8176 33.0471 52.6145 35.6083 51.6431 39.0614H51.2776C50.8264 39.0614 50.4238 38.8922 50.1436 38.5848C49.8615 38.2755 49.7287 37.8547 49.7697 37.3997L52.0079 12.6035L57.1483 12.6046L56.3336 21.6312C56.2031 23.0756 56.6495 24.4396 57.5909 25.4719C58.5302 26.5025 59.8425 27.0702 61.2853 27.0702H71.2857L70.3741 37.1729Z"
          fill="#F48221"/>
</svg>
