<svg width="66" height="66" viewBox="0 0 66 66" fill="none" xmlns="http://www.w3.org/2000/svg">
    <path d="M38.8008 21.3984H31.0664V29.1328H38.8008C40.9277 29.1328 42.668 27.3926 42.668 25.2656C42.668 23.1387 40.9277 21.3984 38.8008 21.3984Z"
          fill="#F48221"/>
    <path d="M33 0C14.863 0 0 14.863 0 33C0 51.137 14.863 66 33 66C51.137 66 66 51.137 66 33C66 14.863 51.137 0 33 0ZM53.5671 53.5671C48.0433 59.0909 40.7389 62.1328 33 62.1328C25.2611 62.1328 17.9567 59.0909 12.4329 53.5671C6.90907 48.0433 3.86719 40.7389 3.86719 33C3.86719 25.2611 6.90907 17.9567 12.4329 12.4329C17.9567 6.90907 25.2611 3.86719 33 3.86719C40.7389 3.86719 48.0433 6.90907 53.5671 12.4329C59.0909 17.9567 62.1328 25.2611 62.1328 33C62.1328 40.7389 59.0909 48.0433 53.5671 53.5671Z"
          fill="#F48221"/>
    <path d="M50.8324 15.1676C46.0392 10.3744 39.7061 7.73438 33 7.73438C26.2939 7.73438 19.9608 10.3744 15.1676 15.1676C10.3744 19.9608 7.73438 26.2939 7.73438 33C7.73438 39.7061 10.3744 46.0392 15.1676 50.8324C19.9608 55.6256 26.2939 58.2656 33 58.2656C39.7061 58.2656 46.0392 55.6256 50.8324 50.8324C55.6261 46.0392 58.2656 39.7061 58.2656 33C58.2656 26.2939 55.6261 19.9608 50.8324 15.1676ZM38.8008 33H31.0664V36.8672H40.7344V40.7344H31.0664V48.4688H27.1992V40.7344H23.332V36.8672H27.1992V33H23.332V29.1328H27.1992V17.5312H38.8008C43.0547 17.5312 46.5352 21.0117 46.5352 25.2656C46.5352 29.5195 43.0547 33 38.8008 33Z"
          fill="#F48221"/>
</svg>
