<svg width="24" height="22" viewBox="0 0 24 22" fill="none" xmlns="http://www.w3.org/2000/svg">
<path d="M4.87509 8H1.12491C0.812508 8 0.546817 8.1458 0.328041 8.4375C0.109306 8.72905 0 9.0832 0 9.50001V12.5004C0 12.9169 0.109306 13.2709 0.328041 13.5625C0.546817 13.8541 0.812508 14 1.12491 14H4.87509C5.18749 14 5.45318 13.8541 5.67196 13.5625C5.89073 13.2709 6 12.9169 6 12.5004V9.50001C6 9.0832 5.89073 8.72905 5.67196 8.4375C5.45318 8.14596 5.18749 8 4.87509 8Z" fill="#444444" fill-opacity="0.5"/>
<path d="M4.87509 0H1.12491C0.812508 0 0.546817 0.145733 0.328041 0.437417C0.109306 0.729102 0 1.08334 0 1.49985V4.49993C0 4.91672 0.109306 5.27106 0.328041 5.56253C0.546817 5.85405 0.812508 6 1.12491 6H4.87509C5.18749 6 5.45318 5.85405 5.67196 5.56253C5.89073 5.27101 6 4.91688 6 4.5001V1.50007C6 1.08356 5.89073 0.729321 5.67196 0.437472C5.45318 0.145897 5.18749 0 4.87509 0Z" fill="#444444" fill-opacity="0.5"/>
<path d="M4.87509 16H1.12491C0.812508 16 0.546817 16.1457 0.328041 16.4375C0.109306 16.7292 0 17.0834 0 17.5V20.5004C0 20.9169 0.109306 21.2713 0.328041 21.5627C0.546817 21.8545 0.812508 22 1.12491 22H4.87509C5.18749 22 5.45318 21.8543 5.67196 21.5627C5.89073 21.2713 6 20.9169 6 20.5004V17.5C6 17.0834 5.89073 16.7292 5.67196 16.4377C5.45318 16.1461 5.18749 16 4.87509 16Z" fill="#444444" fill-opacity="0.5"/>
<path d="M22.6665 8.00018H9.33322C8.96282 8.00018 8.64807 8.14598 8.38879 8.43769C8.1295 8.72939 8 9.08338 8 9.5002V12.5006C8 12.9171 8.1295 13.2711 8.38879 13.5627C8.64793 13.8543 8.96282 14.0002 9.33322 14.0002H22.6669C23.0371 14.0002 23.3521 13.8543 23.6111 13.5627C23.8705 13.2711 24 12.9171 24 12.5006V9.5002C24 9.08338 23.8705 8.72923 23.611 8.43769C23.3517 8.14598 23.0371 8.00018 22.6665 8.00018Z" fill="#444444" fill-opacity="0.5"/>
<path d="M22.6665 16.0002H9.33322C8.96282 16.0002 8.64807 16.1459 8.38879 16.4377C8.1295 16.7294 8 17.0835 8 17.5V20.5004C8 20.9169 8.1295 21.2715 8.38879 21.5631C8.64793 21.8547 8.96282 22.0002 9.33322 22.0002H22.6669C23.0371 22.0002 23.3521 21.8545 23.6111 21.5631C23.8705 21.2713 24 20.9169 24 20.5004V17.5C24 17.0835 23.8705 16.7291 23.611 16.4377C23.3517 16.1463 23.0371 16.0002 22.6665 16.0002Z" fill="#444444" fill-opacity="0.5"/>
<path d="M23.611 0.437612C23.3517 0.146084 23.0371 0.000183105 22.6665 0.000183105H9.33322C8.96282 0.000183105 8.64807 0.14592 8.38879 0.437612C8.1295 0.729305 8 1.08355 8 1.50007V4.50024C8 4.91704 8.1295 5.27095 8.38879 5.5627C8.64793 5.85423 8.96282 6.00018 9.33322 6.00018H22.6669C23.0371 6.00018 23.3517 5.85423 23.6111 5.5627C23.8705 5.27117 24 4.91704 24 4.50024V1.50007C24 1.0835 23.8705 0.729305 23.611 0.437612Z" fill="#444444" fill-opacity="0.5"/>
</svg>
