<svg width="22" height="22" viewBox="0 0 22 22" fill="none" xmlns="http://www.w3.org/2000/svg">
<path d="M5.18886 0H0.811962C0.362966 0 0 0.362916 0 0.811852V5.18897C0 5.63626 0.362966 6 0.811962 6H5.18886C5.63703 6 6 5.63626 6 5.18897V0.811852C6 0.362916 5.63703 0 5.18886 0Z" fill="#444444" fill-opacity="0.5"/>
<path d="M13.1881 0H8.81103C8.36374 0 8 0.362916 8 0.811852V5.18897C8 5.63626 8.36374 6 8.81103 6H13.1881C13.6371 6 14 5.63626 14 5.18897V0.811852C14 0.362916 13.6371 0 13.1881 0Z" fill="#444444" fill-opacity="0.5"/>
<path d="M21.1889 0H16.812C16.363 0 16 0.362916 16 0.811852V5.18897C16 5.63626 16.363 6 16.812 6H21.1889C21.637 6 22 5.63626 22 5.18897V0.811852C22 0.363736 21.637 0 21.1889 0Z" fill="#444444" fill-opacity="0.5"/>
<path d="M5.18886 8H0.811962C0.362966 8.00082 0 8.36297 0 8.81114V13.1889C0 13.637 0.362966 14 0.811962 14H5.18886C5.63703 14 6 13.637 6 13.1889V8.81114C6 8.36297 5.63703 8 5.18886 8Z" fill="#444444" fill-opacity="0.5"/>
<path d="M13.1881 8H8.81103C8.36374 8 8 8.36297 8 8.81114V13.1889C8 13.637 8.36374 14 8.81103 14H13.1881C13.6371 14 14 13.637 14 13.1889V8.81114C14 8.36297 13.6371 8 13.1881 8Z" fill="#444444" fill-opacity="0.5"/>
<path d="M21.1889 8H16.812C16.363 8 16 8.36297 16 8.81114V13.1889C16 13.637 16.363 14 16.812 14H21.1889C21.637 14 22 13.637 22 13.1889V8.81114C22 8.36297 21.637 8 21.1889 8Z" fill="#444444" fill-opacity="0.5"/>
<path d="M5.18886 16H0.811962C0.362966 16 0 16.3637 0 16.811V21.1881C0 21.6363 0.362966 22 0.811962 22H5.18886C5.63703 22 6 21.6363 6 21.1881V16.811C6 16.3637 5.63703 16 5.18886 16Z" fill="#444444" fill-opacity="0.5"/>
<path d="M13.1881 16H8.81103C8.36374 16 8 16.3637 8 16.811V21.1881C8 21.6363 8.36374 22 8.81103 22H13.1881C13.6371 22 14 21.6363 14 21.1881V16.811C14 16.3637 13.6371 16 13.1881 16Z" fill="#444444" fill-opacity="0.5"/>
<path d="M21.1889 16H16.812C16.363 16 16 16.3637 16 16.811V21.1881C16 21.6363 16.363 22 16.812 22H21.1889C21.637 22 22 21.6363 22 21.1881V16.811C22 16.3637 21.637 16 21.1889 16Z" fill="#444444" fill-opacity="0.5"/>
</svg>
